# This file uses centimeters as units for non-parametric coordinates.

mtllib InsideBend_LP.mtl
g default
v 1.450918 0.000000 -1.530383
v 1.112692 0.000000 -1.918731
v 0.783917 0.000000 -2.311549
v 1.450918 1.000000 -1.530383
v 1.112692 1.000000 -1.918731
v 0.787766 0.466665 -2.316443
v 3.000000 1.000000 -2.000000
v 3.000000 1.000000 -2.503769
v 3.000000 0.466665 -3.000000
v 3.000000 0.000000 -2.000000
v 3.000000 0.000000 -2.503769
v 3.000000 0.000000 -3.000000
v 1.000000 -0.000000 -0.000000
v 0.471951 -0.000000 0.000000
v -0.000863 -0.000000 -0.000000
v 1.000000 1.000000 -0.000000
v 0.471952 1.000000 -0.000000
v 0.000863 0.466665 -0.000000
v 1.039644 1.000000 -0.873463
v 1.039644 0.000000 -0.873463
v 0.603767 0.000000 -1.078471
v 0.171343 -0.000000 -1.271528
v 0.174410 0.466665 -1.271528
v 0.603767 1.000000 -1.078471
v 2.131018 1.000000 -1.896695
v 2.131018 0.000000 -1.896695
v 1.947001 0.000000 -2.387089
v 1.767481 0.000000 -2.879515
v 1.767559 0.466665 -2.879704
v 1.947001 1.000000 -2.387089
v 0.974117 1.000000 -0.453129
v 0.974117 0.000000 -0.453129
v 0.490590 -0.000000 -0.550674
v 0.031310 -0.000000 -0.648219
v 0.033678 0.466665 -0.648219
v 0.490590 1.000000 -0.550674
v 1.207839 0.000000 -1.236602
v 1.207839 1.000000 -1.236602
v 0.812468 1.000000 -1.542034
v 0.426196 0.466665 -1.842509
v 0.423572 0.000000 -1.841010
v 0.812468 0.000000 -1.542034
v 1.761940 1.000000 -1.749801
v 1.761941 0.000000 -1.749801
v 1.495210 0.000000 -2.200773
v 1.237189 0.000000 -2.660084
v 1.242172 0.466665 -2.669157
v 1.495210 1.000000 -2.200773
v 2.545818 0.000000 -1.978287
v 2.545818 1.000000 -1.978287
v 2.450177 1.000000 -2.477380
v 2.356044 0.466665 -2.977858
v 2.356043 0.000000 -2.977858
v 2.450177 0.000000 -2.477380
v 2.333557 1.000000 -1.945072
v 2.333557 0.000000 -1.945072
v 2.192464 0.000000 -2.441468
v 2.054663 0.000000 -2.940093
v 2.054663 0.466665 -2.940093
v 2.192464 1.000000 -2.441468
v 1.939941 0.000000 -1.831959
v 1.939941 1.000000 -1.831959
v 1.713677 1.000000 -2.306412
v 1.496792 0.466665 -2.791968
v 1.493067 0.000000 -2.784452
v 1.713677 0.000000 -2.306412
v 2.765946 0.000000 -1.997522
v 2.765946 1.000000 -1.997522
v 2.717484 1.000000 -2.497430
v 2.669344 0.466665 -2.997762
v 2.669344 0.000000 -2.997762
v 2.717484 0.000000 -2.497430
v 1.598494 1.000000 -1.649258
v 1.598494 0.000000 -1.649258
v 1.294343 0.000000 -2.071704
v 1.001599 0.000000 -2.504340
v 1.006005 0.466665 -2.511085
v 1.294343 1.000000 -2.071704
v 1.320378 0.000000 -1.392641
v 1.320377 1.000000 -1.392641
v 0.951672 1.000000 -1.741947
v 0.593862 0.466665 -2.093194
v 0.590633 0.000000 -2.090062
v 0.951672 0.000000 -1.741948
v 1.114074 1.000000 -1.063113
v 1.114074 0.000000 -1.063113
v 0.696008 0.000000 -1.320261
v 0.283485 0.000000 -1.566292
v 0.286419 0.466665 -1.566292
v 0.696009 1.000000 -1.320261
v 0.993964 0.000000 -0.669351
v 0.993964 1.000000 -0.669351
v 0.535332 1.000000 -0.819376
v 0.090196 0.466665 -0.964518
v 0.087484 -0.000000 -0.964518
v 0.535332 0.000000 -0.819376
v 0.970058 1.000000 -0.227661
v 0.970058 -0.000000 -0.227661
v 0.469485 -0.000000 -0.276669
v 0.002599 -0.000000 -0.325678
v 0.004638 0.466665 -0.325678
v 0.469485 1.000000 -0.276669
vt 0.107150 0.021085
vt 0.030528 0.021081
vt 0.337018 0.021099
vt 0.260395 0.021094
vt 0.520563 0.021110
vt 0.449049 0.021105
vt 0.730791 0.223754
vt 0.831538 0.223752
vt 0.449022 0.480840
vt 0.597159 0.480849
vt 0.107124 0.480820
vt 0.520536 0.480844
vt 0.630043 0.116292
vt 0.630041 0.022262
vt 0.260368 0.480829
vt 0.831535 0.022258
vt 0.730788 0.022260
vt 0.336991 0.480834
vt 0.030501 0.480816
vt 0.597185 0.021114
vt 0.626240 0.782716
vt 0.729104 0.782706
vt 0.729124 0.988433
vt 0.626261 0.988443
vt 0.831967 0.782696
vt 0.831976 0.878702
vt 0.260395 0.527838
vt 0.337018 0.527843
vt 0.336991 0.987577
vt 0.260368 0.987573
vt 0.449049 0.527849
vt 0.449022 0.987584
vt 0.107124 0.987564
vt 0.030501 0.987559
vt 0.030528 0.527825
vt 0.107150 0.527829
vt 0.597159 0.987593
vt 0.520536 0.987588
vt 0.520563 0.527853
vt 0.597185 0.527858
vt 0.260382 0.757706
vt 0.107137 0.757697
vt 0.030515 0.757692
vt 0.597172 0.757725
vt 0.520549 0.757721
vt 0.449035 0.757717
vt 0.337004 0.757710
vt 0.260382 0.250962
vt 0.107137 0.250953
vt 0.030515 0.250948
vt 0.597172 0.250981
vt 0.520549 0.250977
vt 0.449035 0.250973
vt 0.337004 0.250966
vt 0.260389 0.642772
vt 0.107144 0.642763
vt 0.030521 0.642758
vt 0.597179 0.642792
vt 0.520556 0.642787
vt 0.449042 0.642783
vt 0.337011 0.642776
vt 0.107130 0.872630
vt 0.260375 0.872639
vt 0.336998 0.872644
vt 0.449029 0.872650
vt 0.520543 0.872654
vt 0.030508 0.872626
vt 0.597165 0.872659
vt 0.260389 0.136028
vt 0.107144 0.136019
vt 0.030521 0.136015
vt 0.597179 0.136048
vt 0.520556 0.136043
vt 0.449042 0.136039
vt 0.337011 0.136033
vt 0.107130 0.365886
vt 0.260375 0.365895
vt 0.336998 0.365900
vt 0.449029 0.365906
vt 0.520543 0.365911
vt 0.030508 0.365882
vt 0.597165 0.365915
vt 0.260379 0.308429
vt 0.107134 0.308419
vt 0.030511 0.308415
vt 0.597169 0.308448
vt 0.520546 0.308444
vt 0.449032 0.308440
vt 0.337001 0.308433
vt 0.107140 0.193486
vt 0.260385 0.193495
vt 0.337008 0.193499
vt 0.449039 0.193506
vt 0.520553 0.193510
vt 0.030518 0.193481
vt 0.597175 0.193515
vt 0.107127 0.423353
vt 0.260372 0.423362
vt 0.336994 0.423367
vt 0.449025 0.423373
vt 0.520539 0.423377
vt 0.030504 0.423349
vt 0.597162 0.423382
vt 0.260392 0.078561
vt 0.107147 0.078552
vt 0.030525 0.078548
vt 0.597182 0.078581
vt 0.520560 0.078576
vt 0.449045 0.078572
vt 0.337014 0.078566
vt 0.107127 0.930097
vt 0.260372 0.930106
vt 0.336994 0.930111
vt 0.449025 0.930117
vt 0.520539 0.930121
vt 0.030504 0.930093
vt 0.597162 0.930126
vt 0.260379 0.815172
vt 0.107134 0.815163
vt 0.030511 0.815159
vt 0.597169 0.815192
vt 0.520546 0.815188
vt 0.449032 0.815183
vt 0.337001 0.815177
vt 0.107140 0.700230
vt 0.260385 0.700239
vt 0.337008 0.700243
vt 0.449039 0.700250
vt 0.520553 0.700254
vt 0.030518 0.700225
vt 0.597175 0.700258
vt 0.260392 0.585305
vt 0.107147 0.585296
vt 0.030525 0.585292
vt 0.597182 0.585325
vt 0.520560 0.585320
vt 0.449045 0.585316
vt 0.337014 0.585310
vn 0.000000 1.000000 0.000000
vn 0.000000 1.000000 0.000000
vn -0.304010 0.864853 -0.399509
vn -0.325831 0.867949 -0.374830
vn -0.429737 0.700735 -0.569470
vn -0.471036 0.696061 -0.541871
vn 1.000000 0.000000 0.000000
vn 1.000000 0.000000 0.000000
vn 1.000000 0.000000 0.000000
vn 1.000000 0.000000 0.000000
vn 1.000000 0.000000 0.000000
vn 1.000000 0.000000 0.000000
vn 0.000000 -1.000000 0.000000
vn 0.000000 -1.000000 -0.000000
vn 0.000000 -1.000000 0.000000
vn 0.000000 -1.000000 0.000000
vn 0.000000 -1.000000 0.000000
vn 0.000000 -1.000000 0.000000
vn -0.664309 -0.003445 -0.747450
vn -0.664310 -0.003445 -0.747450
vn -0.610787 -0.005997 -0.791772
vn -0.611933 -0.005944 -0.790888
vn 0.576460 0.000000 0.817126
vn 0.627310 0.000000 0.778770
vn 0.627310 0.000000 0.778770
vn 0.576460 0.000000 0.817126
vn 0.000000 0.000000 1.000000
vn 0.000000 0.000000 1.000000
vn 0.000000 0.000000 1.000000
vn 0.000000 0.000000 1.000000
vn -0.000000 0.000000 1.000000
vn -0.000000 0.000000 1.000000
vn 0.000000 1.000000 0.000000
vn 0.000000 1.000000 0.000000
vn -0.522268 0.852503 -0.021788
vn -0.509222 0.860635 -0.001105
vn -0.751572 0.658827 -0.032968
vn -0.751630 0.659583 -0.001631
vn 0.000000 -1.000000 -0.000000
vn 0.000000 -1.000000 -0.000000
vn 0.000000 -1.000000 -0.000000
vn 0.000000 -1.000000 -0.000000
vn 0.000000 -1.000000 -0.000000
vn 0.000000 -1.000000 -0.000000
vn -0.999930 0.004034 -0.011110
vn -0.999930 0.004034 -0.011110
vn -0.998736 0.004371 -0.050070
vn -0.998737 0.004371 -0.050059
vn 0.998373 -0.000000 -0.057028
vn 0.991462 -0.000000 -0.130399
vn 0.991462 -0.000000 -0.130399
vn 0.998373 -0.000000 -0.057028
vn 0.725827 0.000000 0.687877
vn 0.725827 0.000000 0.687877
vn 0.770459 0.000000 0.637489
vn 0.770459 0.000000 0.637489
vn 0.000000 -1.000000 -0.000000
vn 0.000000 -1.000000 -0.000000
vn 0.000000 -1.000000 -0.000000
vn 0.000000 -1.000000 -0.000000
vn 0.000000 -1.000000 0.000000
vn 0.000000 -1.000000 0.000000
vn -0.794258 0.001268 -0.607579
vn -0.754219 0.000073 -0.656623
vn -0.754219 0.000073 -0.656623
vn -0.794723 0.001283 -0.606971
vn -0.411350 0.854131 -0.318201
vn -0.394328 0.849766 -0.349863
vn -0.543732 0.686752 -0.482419
vn -0.574897 0.683005 -0.450553
vn 0.000000 1.000000 0.000000
vn 0.000000 1.000000 0.000000
vn 0.010585 0.000000 0.999944
vn 0.010585 0.000000 0.999944
vn 0.047753 0.000000 0.998859
vn 0.047753 0.000000 0.998859
vn 0.000000 -1.000000 0.000000
vn 0.000000 -1.000000 0.000000
vn 0.000000 -1.000000 0.000000
vn 0.000000 -1.000000 0.000000
vn 0.000000 -1.000000 0.000000
vn 0.000000 -1.000000 0.000000
vn -0.034363 0.000000 -0.999409
vn -0.006769 0.000000 -0.999977
vn -0.006769 0.000000 -0.999977
vn -0.034363 0.000000 -0.999409
vn -0.020218 0.863320 -0.504252
vn -0.007063 0.863130 -0.504932
vn -0.010218 0.682896 -0.730444
vn -0.030126 0.685050 -0.727873
vn 0.000000 1.000000 0.000000
vn 0.000000 1.000000 0.000000
vn 0.956492 0.000000 0.291760
vn 0.988066 0.000000 0.154034
vn 0.988066 0.000000 0.154034
vn 0.956492 0.000000 0.291760
vn 0.000000 -1.000000 -0.000000
vn 0.000000 -1.000000 -0.000000
vn 0.000000 -1.000000 -0.000000
vn 0.000000 -1.000000 -0.000000
vn 0.000000 -1.000000 -0.000000
vn 0.000000 -1.000000 -0.000000
vn -0.975540 0.005670 -0.219751
vn -0.950749 0.005997 -0.309904
vn -0.950788 0.005997 -0.309785
vn -0.975556 0.005669 -0.219678
vn -0.523633 0.844224 -0.114426
vn -0.512411 0.842827 -0.164554
vn -0.714036 0.660222 -0.232936
vn -0.734958 0.658101 -0.163526
vn 0.000000 1.000000 0.000000
vn 0.000000 1.000000 0.000000
vn 0.907396 -0.000000 0.420277
vn 0.907396 -0.000000 0.420277
vn 0.000000 1.000000 0.000000
vn -0.489711 0.844604 -0.216396
vn -0.681047 0.665413 -0.305616
vn -0.914613 0.005310 -0.404297
vn -0.914682 0.005312 -0.404139
vn 0.000000 -1.000000 -0.000000
vn 0.000000 -1.000000 -0.000000
vn 0.000000 -1.000000 -0.000000
vn 0.276192 0.000000 0.961103
vn 0.369792 0.000000 0.929114
vn 0.369792 0.000000 0.929114
vn 0.276192 0.000000 0.961103
vn 0.000000 -1.000000 0.000000
vn 0.000000 -1.000000 0.000000
vn 0.000000 -1.000000 0.000000
vn 0.000000 -1.000000 0.000000
vn 0.000000 -1.000000 0.000000
vn 0.000000 -1.000000 0.000000
vn -0.376692 -0.009208 -0.926293
vn -0.261868 -0.003329 -0.965098
vn -0.261887 -0.003330 -0.965093
vn -0.377703 -0.009255 -0.925880
vn -0.184893 0.870409 -0.456293
vn -0.129671 0.868725 -0.478019
vn -0.189651 0.700299 -0.688196
vn -0.267584 0.705078 -0.656707
vn 0.000000 1.000000 0.000000
vn 0.000000 1.000000 0.000000
vn 0.193002 0.000000 0.981198
vn 0.193002 0.000000 0.981198
vn 0.000000 1.000000 0.000000
vn -0.083919 0.867184 -0.490866
vn -0.123750 0.694426 -0.708843
vn -0.164663 -0.000089 -0.986350
vn -0.164663 -0.000089 -0.986350
vn 0.000000 -1.000000 0.000000
vn 0.000000 -1.000000 0.000000
vn 0.000000 -1.000000 0.000000
vn 0.120421 0.000000 0.992723
vn 0.120421 0.000000 0.992723
vn 0.000000 -1.000000 0.000000
vn 0.000000 -1.000000 0.000000
vn 0.000000 -1.000000 0.000000
vn -0.093409 0.000000 -0.995628
vn -0.093409 0.000000 -0.995628
vn -0.049264 0.864900 -0.499521
vn -0.072784 0.689407 -0.720708
vn 0.000000 1.000000 0.000000
vn 0.471787 0.000000 0.881713
vn 0.471787 0.000000 0.881713
vn 0.000000 1.000000 0.000000
vn -0.243909 0.869206 -0.430103
vn -0.348845 0.705553 -0.616848
vn -0.495206 -0.010280 -0.868715
vn -0.496628 -0.010239 -0.867903
vn 0.000000 -1.000000 0.000000
vn 0.000000 -1.000000 0.000000
vn 0.000000 -1.000000 0.000000
vn 0.847594 -0.000000 0.530645
vn 0.847594 -0.000000 0.530645
vn 0.000000 1.000000 0.000000
vn -0.455251 0.848935 -0.268432
vn -0.634194 0.673603 -0.379549
vn -0.863057 0.003533 -0.505095
vn -0.863273 0.003540 -0.504724
vn 0.000000 -1.000000 -0.000000
vn 0.000000 -1.000000 -0.000000
vn 0.000000 -1.000000 -0.000000
vn 0.998539 -0.000000 0.054045
vn 0.998539 -0.000000 0.054045
vn 0.000000 1.000000 0.000000
vn -0.525964 0.847900 -0.066537
vn -0.747009 0.657727 -0.096817
vn -0.991204 0.005034 -0.132246
vn -0.991209 0.005034 -0.132209
vn 0.000000 -1.000000 -0.000000
vn 0.000000 -1.000000 -0.000000
vn 0.000000 -1.000000 -0.000000
s 1
g InsideBend
usemtl initialShadingGroup
f 4/4/1 73/104/2 78/110/3 5/3/4
f 5/3/4 78/110/3 77/109/5 6/6/6
s 2
f 7/8/7 10/16/8 11/17/9 8/7/10
f 8/7/10 11/17/9 12/14/11 9/13/12
s 3
f 74/105/13 1/1/14 2/2/15 75/106/16
f 75/107/16 2/20/15 3/5/17 76/108/18
s 4
f 3/5/19 6/6/20 77/109/21 76/108/22
s 5
f 73/104/23 4/4/24 1/1/25 74/105/26
s 6
f 13/21/27 16/24/28 17/23/29 14/22/30
f 14/22/30 17/23/29 18/26/31 15/25/32
s 7
f 16/27/33 97/132/34 102/138/35 17/28/36
f 17/28/36 102/138/35 101/137/37 18/31/38
s 8
f 98/133/39 13/36/40 14/35/41 99/134/42
f 99/135/42 14/40/41 15/39/43 100/136/44
s 9
f 15/39/45 18/31/46 101/137/47 100/136/48
s 10
f 97/132/49 16/27/50 13/36/51 98/133/52
f 1/33/53 4/30/54 80/112/55 79/111/56
s 8
f 1/33/57 79/111/58 84/116/59 2/34/60
f 2/37/60 84/117/59 83/115/61 3/38/62
s 9
f 82/114/63 6/32/64 3/38/65 83/115/66
s 7
f 81/113/67 5/29/68 6/32/69 82/114/70
f 80/112/71 4/30/72 5/29/68 81/113/67
s 5
f 10/11/73 7/15/74 68/98/75 67/97/76
s 3
f 10/11/77 67/97/78 72/102/79 11/19/80
f 11/10/80 72/103/79 71/101/81 12/12/82
s 4
f 70/100/83 9/9/84 12/12/85 71/101/86
s 1
f 69/99/87 8/18/88 9/9/89 70/100/90
f 68/98/91 7/15/92 8/18/88 69/99/87
s 10
f 19/41/93 92/126/94 91/125/95 20/42/96
s 8
f 20/42/97 91/125/98 96/130/99 21/43/100
f 21/44/100 96/131/99 95/129/101 22/45/102
s 9
f 94/128/103 23/46/104 22/45/105 95/129/106
s 7
f 93/127/107 24/47/108 23/46/109 94/128/110
f 92/126/111 19/41/112 24/47/108 93/127/107
s 10
f 85/118/113 19/41/93 20/42/96 86/119/114
s 7
f 19/41/112 85/118/115 90/124/116 24/47/108
f 24/47/108 90/124/116 89/123/117 23/46/109
s 9
f 23/46/104 89/123/118 88/122/119 22/45/105
s 8
f 87/121/120 21/44/100 22/45/102 88/122/121
f 86/119/122 20/42/97 21/43/100 87/120/120
s 5
f 25/48/123 62/91/124 61/90/125 26/49/126
s 3
f 26/49/127 61/90/128 66/95/129 27/50/130
f 27/51/130 66/96/129 65/94/131 28/52/132
s 4
f 64/93/133 29/53/134 28/52/135 65/94/136
s 1
f 63/92/137 30/54/138 29/53/139 64/93/140
f 62/91/141 25/48/142 30/54/138 63/92/137
s 5
f 55/83/143 25/48/123 26/49/126 56/84/144
s 1
f 25/48/142 55/83/145 60/89/146 30/54/138
f 30/54/138 60/89/146 59/88/147 29/53/139
s 4
f 29/53/134 59/88/148 58/87/149 28/52/135
s 3
f 57/86/150 27/51/130 28/52/132 58/87/151
f 56/84/152 26/49/127 27/50/130 57/85/150
s 5
f 50/77/153 55/83/143 56/84/144 49/76/154
s 3
f 49/76/155 56/84/152 57/85/150 54/81/156
f 54/82/156 57/86/150 58/87/151 53/80/157
s 4
f 59/88/148 52/79/158 53/80/159 58/87/149
s 1
f 60/89/146 51/78/160 52/79/161 59/88/147
f 55/83/145 50/77/162 51/78/160 60/89/146
s 5
f 62/91/124 43/69/163 44/70/164 61/90/125
s 1
f 43/69/165 62/91/141 63/92/137 48/75/166
f 48/75/166 63/92/137 64/93/140 47/74/167
s 4
f 47/74/168 64/93/133 65/94/136 46/73/169
s 3
f 66/96/129 45/72/170 46/73/171 65/94/131
f 61/90/128 44/70/172 45/71/170 66/95/129
s 5
f 68/98/75 50/77/153 49/76/154 67/97/76
s 1
f 50/77/162 68/98/91 69/99/87 51/78/160
f 51/78/160 69/99/87 70/100/90 52/79/161
s 4
f 52/79/158 70/100/83 71/101/86 53/80/159
s 3
f 72/103/79 54/82/156 53/80/157 71/101/81
f 67/97/78 49/76/155 54/81/156 72/102/79
s 5
f 43/69/163 73/104/23 74/105/26 44/70/164
s 3
f 44/70/172 74/105/13 75/106/16 45/71/170
f 45/72/170 75/107/16 76/108/18 46/73/171
s 4
f 77/109/21 47/74/168 46/73/169 76/108/22
s 1
f 78/110/3 48/75/166 47/74/167 77/109/5
f 73/104/2 43/69/165 48/75/166 78/110/3
s 10
f 80/112/55 38/63/173 37/62/174 79/111/56
s 7
f 38/63/175 80/112/71 81/113/67 39/64/176
f 39/64/176 81/113/67 82/114/70 40/65/177
s 9
f 40/65/178 82/114/63 83/115/66 41/66/179
s 8
f 84/117/59 42/68/180 41/66/181 83/115/61
f 79/111/58 37/62/182 42/67/180 84/116/59
s 10
f 38/63/173 85/118/113 86/119/114 37/62/174
s 8
f 37/62/182 86/119/122 87/120/120 42/67/180
f 42/68/180 87/121/120 88/122/121 41/66/181
s 9
f 89/123/118 40/65/178 41/66/179 88/122/119
s 7
f 90/124/116 39/64/176 40/65/177 89/123/117
f 85/118/115 38/63/175 39/64/176 90/124/116
s 10
f 92/126/94 31/55/183 32/56/184 91/125/95
s 7
f 31/55/185 92/126/111 93/127/107 36/61/186
f 36/61/186 93/127/107 94/128/110 35/60/187
s 9
f 35/60/188 94/128/103 95/129/106 34/59/189
s 8
f 96/131/99 33/58/190 34/59/191 95/129/101
f 91/125/98 32/56/192 33/57/190 96/130/99
s 10
f 31/55/183 97/132/49 98/133/52 32/56/184
s 8
f 32/56/192 98/133/39 99/134/42 33/57/190
f 33/58/190 99/135/42 100/136/44 34/59/191
s 9
f 101/137/47 35/60/188 34/59/189 100/136/48
s 7
f 102/138/35 36/61/186 35/60/187 101/137/37
f 97/132/34 31/55/185 36/61/186 102/138/35
