# This file uses centimeters as units for non-parametric coordinates.

mtllib OutsideBend_LP.mtl
g default
v 0.145346 -0.000000 -2.938863
v 0.470844 0.000000 -2.557744
v 0.802197 0.000000 -2.182352
v 0.149629 1.000000 -2.943068
v 0.475729 1.000000 -2.562547
v 0.802197 0.466665 -2.182352
v 3.000000 1.000000 -4.000000
v 3.000000 1.000000 -3.504683
v 3.000000 0.466665 -3.000000
v 3.000000 0.000000 -4.000000
v 3.000000 0.000000 -3.504683
v 3.000000 0.000000 -3.000000
v -1.000008 0.000000 -0.000000
v -0.501534 0.000000 0.000142
v -0.000000 0.000000 -0.000000
v -0.999992 1.000000 0.000000
v -0.501212 1.000000 -0.000142
v -0.000000 0.466665 -0.000000
v -0.694609 1.000000 -1.631934
v -0.696281 -0.000000 -1.630321
v -0.254362 0.000000 -1.419503
v 0.185826 0.000000 -1.206889
v 0.185826 0.466665 -1.206889
v -0.252010 1.000000 -1.421790
v 1.418038 1.000000 -3.747891
v 1.418038 0.000000 -3.747891
v 1.594975 0.000000 -3.271759
v 1.773414 0.000000 -2.797130
v 1.773414 0.466665 -2.797130
v 1.595960 1.000000 -3.272776
v -0.920401 1.000000 -0.840462
v -0.920984 -0.000000 -0.839922
v -0.441754 0.000000 -0.731745
v 0.032318 0.000000 -0.618399
v 0.032318 0.466665 -0.618399
v -0.440510 1.000000 -0.732935
v -0.336982 -0.000000 -2.338303
v -0.334047 1.000000 -2.341170
v 0.056532 1.000000 -2.038744
v 0.444946 0.466665 -1.734131
v 0.444946 0.000000 -1.734131
v 0.052936 0.000000 -2.035222
v 0.737758 1.000000 -3.414677
v 0.737758 0.000000 -3.414677
v 0.988903 0.000000 -2.972632
v 1.248638 0.000000 -2.539149
v 1.248638 0.466665 -2.539149
v 0.994998 1.000000 -2.978641
v 2.175861 0.000000 -3.941575
v 2.175861 1.000000 -3.941575
v 2.269066 1.000000 -3.446907
v 2.362769 0.466665 -2.952730
v 2.362769 0.000000 -2.952730
v 2.269066 0.000000 -3.446907
v 1.788281 1.000000 -3.862081
v 1.788281 0.000000 -3.862081
v 1.924170 0.000000 -3.374483
v 2.061025 0.000000 -2.887843
v 2.061025 0.466665 -2.887843
v 1.924170 1.000000 -3.374483
v 1.066708 0.000000 -3.598269
v 1.066708 1.000000 -3.598269
v 1.286421 1.000000 -3.141608
v 1.502012 0.466665 -2.680786
v 1.502012 0.000000 -2.680786
v 1.281800 0.000000 -3.136965
v 2.580374 0.000000 -3.988949
v 2.580374 1.000000 -3.988949
v 2.628261 1.000000 -3.490253
v 2.676284 0.466665 -2.991692
v 2.676284 0.000000 -2.991692
v 2.628261 0.000000 -3.490253
v 0.432696 1.000000 -3.197220
v 0.428811 0.000000 -3.193258
v 0.718060 0.000000 -2.779284
v 1.014893 0.000000 -2.372747
v 1.014893 0.466665 -2.372747
v 0.723572 1.000000 -2.784708
v -0.110441 -0.000000 -2.653261
v -0.106835 1.000000 -2.656795
v 0.252931 1.000000 -2.313358
v 0.611827 0.466665 -1.969021
v 0.611827 0.000000 -1.969021
v 0.248689 0.000000 -2.309194
v -0.530470 1.000000 -1.998582
v -0.532756 -0.000000 -1.996359
v -0.115148 0.000000 -1.737843
v 0.302618 0.000000 -1.479401
v 0.302618 0.466665 -1.479401
v -0.112186 1.000000 -1.740735
v -0.826133 -0.000000 -1.243569
v -0.825032 1.000000 -1.244620
v -0.361798 1.000000 -1.084777
v 0.095462 0.466665 -0.918989
v 0.095462 0.000000 -0.918989
v -0.363576 0.000000 -1.083060
v -0.979473 1.000000 -0.423695
v -0.979510 -0.000000 -0.423695
v -0.487988 0.000000 -0.369107
v 0.002547 0.000000 -0.308085
v 0.002547 0.466665 -0.308085
v -0.487230 1.000000 -0.369818
vt 0.107150 0.021085
vt 0.030528 0.021081
vt 0.337018 0.021099
vt 0.260395 0.021094
vt 0.520563 0.021110
vt 0.449049 0.021105
vt 0.730791 0.223754
vt 0.831538 0.223752
vt 0.449022 0.480840
vt 0.597159 0.480849
vt 0.107124 0.480820
vt 0.520536 0.480844
vt 0.630043 0.116292
vt 0.630041 0.022262
vt 0.260368 0.480829
vt 0.831535 0.022258
vt 0.730788 0.022260
vt 0.336991 0.480834
vt 0.030501 0.480816
vt 0.597185 0.021114
vt 0.626240 0.782716
vt 0.729104 0.782706
vt 0.729124 0.988433
vt 0.626261 0.988443
vt 0.831967 0.782696
vt 0.831976 0.878702
vt 0.260395 0.527838
vt 0.337018 0.527843
vt 0.336991 0.987577
vt 0.260368 0.987573
vt 0.449049 0.527849
vt 0.449022 0.987584
vt 0.107124 0.987564
vt 0.030501 0.987559
vt 0.030528 0.527825
vt 0.107150 0.527829
vt 0.597159 0.987593
vt 0.520536 0.987588
vt 0.520563 0.527853
vt 0.597185 0.527858
vt 0.260382 0.757706
vt 0.107137 0.757697
vt 0.030515 0.757692
vt 0.597172 0.757725
vt 0.520549 0.757721
vt 0.449035 0.757717
vt 0.337004 0.757710
vt 0.260382 0.250962
vt 0.107137 0.250953
vt 0.030515 0.250948
vt 0.597172 0.250981
vt 0.520549 0.250977
vt 0.449035 0.250973
vt 0.337004 0.250966
vt 0.260389 0.642772
vt 0.107144 0.642763
vt 0.030521 0.642758
vt 0.597179 0.642792
vt 0.520556 0.642787
vt 0.449042 0.642783
vt 0.337011 0.642776
vt 0.107130 0.872630
vt 0.260375 0.872639
vt 0.336998 0.872644
vt 0.449029 0.872650
vt 0.520543 0.872654
vt 0.030508 0.872626
vt 0.597165 0.872659
vt 0.260389 0.136028
vt 0.107144 0.136019
vt 0.030521 0.136015
vt 0.597179 0.136048
vt 0.520556 0.136043
vt 0.449042 0.136039
vt 0.337011 0.136033
vt 0.107130 0.365886
vt 0.260375 0.365895
vt 0.336998 0.365900
vt 0.449029 0.365906
vt 0.520543 0.365911
vt 0.030508 0.365882
vt 0.597165 0.365915
vt 0.260379 0.308429
vt 0.107134 0.308419
vt 0.030511 0.308415
vt 0.597169 0.308448
vt 0.520546 0.308444
vt 0.449032 0.308440
vt 0.337001 0.308433
vt 0.107140 0.193486
vt 0.260385 0.193495
vt 0.337008 0.193499
vt 0.449039 0.193506
vt 0.520553 0.193510
vt 0.030518 0.193481
vt 0.597175 0.193515
vt 0.107127 0.423353
vt 0.260372 0.423362
vt 0.336994 0.423367
vt 0.449025 0.423373
vt 0.520539 0.423377
vt 0.030504 0.423349
vt 0.597162 0.423382
vt 0.260392 0.078561
vt 0.107147 0.078552
vt 0.030525 0.078548
vt 0.597182 0.078581
vt 0.520560 0.078576
vt 0.449045 0.078572
vt 0.337014 0.078566
vt 0.107127 0.930097
vt 0.260372 0.930106
vt 0.336994 0.930111
vt 0.449025 0.930117
vt 0.520539 0.930121
vt 0.030504 0.930093
vt 0.597162 0.930126
vt 0.260379 0.815172
vt 0.107134 0.815163
vt 0.030511 0.815159
vt 0.597169 0.815192
vt 0.520546 0.815188
vt 0.449032 0.815183
vt 0.337001 0.815177
vt 0.107140 0.700230
vt 0.260385 0.700239
vt 0.337008 0.700243
vt 0.449039 0.700250
vt 0.520553 0.700254
vt 0.030518 0.700225
vt 0.597175 0.700258
vt 0.260392 0.585305
vt 0.107147 0.585296
vt 0.030525 0.585292
vt 0.597182 0.585325
vt 0.520560 0.585320
vt 0.449045 0.585316
vt 0.337014 0.585310
vn 0.000000 1.000000 -0.000000
vn 0.298594 0.894281 0.333322
vn 0.268781 0.902374 0.336865
vn 0.000000 1.000000 0.000000
vn 0.486266 0.684756 0.542821
vn 0.455070 0.686622 0.566976
vn 1.000000 0.000000 0.000000
vn 1.000000 0.000000 0.000000
vn 1.000000 0.000000 0.000000
vn 1.000000 0.000000 0.000000
vn 1.000000 0.000000 0.000000
vn 1.000000 0.000000 0.000000
vn 0.000000 -1.000000 0.000000
vn 0.000000 -1.000000 0.000000
vn 0.000000 -1.000000 0.000000
vn 0.000000 -1.000000 0.000000
vn 0.000000 -1.000000 0.000000
vn 0.000000 -1.000000 0.000000
vn 0.666966 0.000000 0.745088
vn 0.624316 0.000000 0.781172
vn 0.624316 0.000000 0.781172
vn 0.666966 0.000000 0.745088
vn -0.625747 -0.000397 -0.780026
vn -0.626050 -0.000396 -0.779783
vn -0.667998 -0.000310 -0.744163
vn -0.667998 -0.000310 -0.744163
vn -0.000000 0.000142 1.000000
vn 0.000044 0.000164 1.000000
vn 0.000027 0.000155 1.000000
vn -0.000000 0.000142 1.000000
vn 0.000103 0.000193 1.000000
vn 0.000103 0.000193 1.000000
vn 0.000000 1.000000 0.000000
vn 0.435720 0.900019 0.010626
vn 0.435821 0.899521 0.030367
vn 0.000000 1.000000 0.000000
vn 0.731985 0.681086 0.017852
vn 0.732838 0.678605 0.049433
vn 0.000000 -1.000000 0.000000
vn 0.000000 -1.000000 0.000000
vn 0.000000 -1.000000 0.000000
vn 0.000000 -1.000000 0.000000
vn 0.000000 -1.000000 -0.000000
vn 0.000000 -1.000000 -0.000000
vn 0.999966 0.000000 0.008269
vn 0.998637 0.000000 0.052190
vn 0.998637 0.000000 0.052190
vn 0.999966 0.000000 0.008269
vn -0.995575 0.000148 -0.093974
vn -0.995575 0.000148 -0.093974
vn -0.998831 0.000027 -0.048347
vn -0.998831 0.000027 -0.048347
vn -0.744870 0.000357 -0.667210
vn -0.779696 0.000574 -0.626158
vn -0.779483 0.000573 -0.626423
vn -0.744870 0.000357 -0.667210
vn 0.000000 -1.000000 0.000000
vn 0.000000 -1.000000 0.000000
vn 0.000000 -1.000000 0.000000
vn 0.000000 -1.000000 0.000000
vn 0.000000 -1.000000 0.000000
vn 0.000000 -1.000000 0.000000
vn 0.781995 0.000000 0.623284
vn 0.781995 0.000000 0.623284
vn 0.746120 0.000000 0.665812
vn 0.746120 0.000000 0.665812
vn 0.339034 0.900585 0.272033
vn 0.573432 0.680577 0.456060
vn 0.545648 0.681677 0.487426
vn 0.311679 0.908481 0.278422
vn 0.000000 1.000000 -0.000000
vn 0.000000 1.000000 0.000000
vn -0.026327 0.000000 -0.999653
vn -0.070715 0.000000 -0.997497
vn -0.070715 0.000000 -0.997497
vn -0.026327 0.000000 -0.999653
vn 0.000000 -1.000000 0.000000
vn 0.000000 -1.000000 0.000000
vn 0.000000 -1.000000 0.000000
vn 0.000000 -1.000000 0.000000
vn 0.000000 -1.000000 0.000000
vn 0.000000 -1.000000 0.000000
vn 0.073977 0.000000 0.997260
vn 0.073977 0.000000 0.997260
vn 0.025658 0.000000 0.999671
vn 0.025658 0.000000 0.999671
vn 0.033646 0.899146 0.436355
vn 0.055437 0.685557 0.725906
vn 0.023791 0.685493 0.727691
vn 0.014338 0.898598 0.438538
vn 0.000000 1.000000 0.000000
vn 0.000000 1.000000 0.000000
vn -0.931567 0.000957 -0.363569
vn -0.931614 0.000957 -0.363449
vn -0.961770 0.000763 -0.273859
vn -0.961748 0.000763 -0.273933
vn 0.000000 -1.000000 0.000000
vn 0.000000 -1.000000 0.000000
vn 0.000000 -1.000000 0.000000
vn 0.000000 -1.000000 0.000000
vn 0.000000 -1.000000 -0.000000
vn 0.000000 -1.000000 -0.000000
vn 0.967622 0.000000 0.252404
vn 0.967622 0.000000 0.252404
vn 0.937969 0.000000 0.346720
vn 0.937969 0.000000 0.346720
vn 0.426433 0.897185 0.114948
vn 0.715152 0.672633 0.190059
vn 0.692754 0.673267 0.258464
vn 0.412636 0.897456 0.155900
vn 0.000000 1.000000 0.000000
vn 0.000000 1.000000 0.000000
vn -0.891534 0.001013 -0.452952
vn -0.891621 0.001013 -0.452782
vn 0.393345 0.898203 0.196240
vn 0.000000 1.000000 -0.000000
vn 0.661712 0.674976 0.326412
vn 0.897471 0.000000 0.441073
vn 0.897471 0.000000 0.441073
vn 0.000000 -1.000000 0.000000
vn 0.000000 -1.000000 0.000000
vn 0.000000 -1.000000 0.000000
vn -0.343377 0.000000 -0.939198
vn -0.343377 0.000000 -0.939198
vn -0.439885 0.000000 -0.898054
vn -0.439885 0.000000 -0.898054
vn 0.000000 -1.000000 0.000000
vn 0.000000 -1.000000 0.000000
vn 0.000000 -1.000000 0.000000
vn 0.000000 -1.000000 0.000000
vn 0.000000 -1.000000 0.000000
vn 0.000000 -1.000000 0.000000
vn 0.441174 0.000000 0.897422
vn 0.441174 0.000000 0.897422
vn 0.347336 0.000000 0.937741
vn 0.347336 0.000000 0.937741
vn 0.189178 0.902831 0.386144
vn 0.319045 0.689934 0.649770
vn 0.249905 0.689400 0.679908
vn 0.148954 0.902091 0.405024
vn 0.000000 1.000000 0.000000
vn 0.000000 1.000000 0.000000
vn -0.247620 0.000000 -0.968857
vn -0.247620 0.000000 -0.968857
vn 0.109813 0.900989 0.419715
vn 0.000000 1.000000 0.000000
vn 0.183207 0.687854 0.702347
vn 0.255271 0.000000 0.966870
vn 0.255271 0.000000 0.966870
vn 0.000000 -1.000000 0.000000
vn 0.000000 -1.000000 0.000000
vn 0.000000 -1.000000 0.000000
vn -0.158152 0.000000 -0.987415
vn -0.158152 0.000000 -0.987415
vn 0.000000 -1.000000 0.000000
vn 0.000000 -1.000000 0.000000
vn 0.000000 -1.000000 0.000000
vn 0.166435 0.000000 0.986053
vn 0.166435 0.000000 0.986053
vn 0.119197 0.686069 0.717706
vn 0.071805 0.899907 0.430129
vn 0.000000 1.000000 0.000000
vn -0.535298 -0.000241 -0.844663
vn -0.535298 -0.000241 -0.844663
vn 0.000000 1.000000 0.000000
vn 0.229858 0.902677 0.363785
vn 0.388413 0.688886 0.612022
vn 0.534471 0.000000 0.845187
vn 0.534471 0.000000 0.845187
vn 0.000000 -1.000000 0.000000
vn 0.000000 -1.000000 0.000000
vn 0.000000 -1.000000 0.000000
vn -0.841098 0.000895 -0.540882
vn -0.840956 0.000895 -0.541103
vn 0.000000 1.000000 -0.000000
vn 0.368674 0.899304 0.235227
vn 0.621847 0.677526 0.392765
vn 0.845508 0.000000 0.533963
vn 0.845508 0.000000 0.533963
vn 0.000000 -1.000000 0.000000
vn 0.000000 -1.000000 0.000000
vn 0.000000 -1.000000 0.000000
vn -0.982857 0.000453 -0.184367
vn -0.982850 0.000453 -0.184404
vn 0.000000 1.000000 0.000000
vn 0.434612 0.897719 0.072201
vn 0.728930 0.674223 0.118676
vn 0.988631 0.000000 0.150364
vn 0.988631 0.000000 0.150364
vn 0.000000 -1.000000 -0.000000
vn 0.000000 -1.000000 0.000000
vn 0.000000 -1.000000 0.000000
s 1
g OutBend
usemtl initialShadingGroup
f 4/4/1 5/3/2 78/110/3 73/104/4
f 5/3/2 6/6/5 77/109/6 78/110/3
s 2
f 7/8/7 8/7/8 11/17/9 10/16/10
f 8/7/8 9/13/11 12/14/12 11/17/9
s 3
f 74/105/13 75/106/14 2/2/15 1/1/16
f 75/107/14 76/108/17 3/5/18 2/20/15
s 4
f 3/5/19 76/108/20 77/109/21 6/6/22
s 5
f 73/104/23 74/105/24 1/1/25 4/4/26
s 6
f 13/21/27 14/22/28 17/23/29 16/24/30
f 14/22/28 15/25/31 18/26/32 17/23/29
s 7
f 16/27/33 17/28/34 102/138/35 97/132/36
f 17/28/34 18/31/37 101/137/38 102/138/35
s 8
f 98/133/39 99/134/40 14/35/41 13/36/42
f 99/135/40 100/136/43 15/39/44 14/40/41
s 9
f 15/39/45 100/136/46 101/137/47 18/31/48
s 10
f 97/132/49 98/133/50 13/36/51 16/27/52
f 1/33/53 79/111/54 80/112/55 4/30/56
s 8
f 1/33/57 2/34/58 84/116/59 79/111/60
f 2/37/58 3/38/61 83/115/62 84/117/59
s 9
f 82/114/63 83/115/64 3/38/65 6/32/66
s 7
f 81/113/67 82/114/68 6/32/69 5/29/70
f 80/112/71 81/113/67 5/29/70 4/30/72
s 5
f 10/11/73 67/97/74 68/98/75 7/15/76
s 3
f 10/11/77 11/19/78 72/102/79 67/97/80
f 11/10/78 12/12/81 71/101/82 72/103/79
s 4
f 70/100/83 71/101/84 12/12/85 9/9/86
s 1
f 69/99/87 70/100/88 9/9/89 8/18/90
f 68/98/91 69/99/87 8/18/90 7/15/92
s 10
f 19/41/93 20/42/94 91/125/95 92/126/96
s 8
f 20/42/97 21/43/98 96/130/99 91/125/100
f 21/44/98 22/45/101 95/129/102 96/131/99
s 9
f 94/128/103 95/129/104 22/45/105 23/46/106
s 7
f 93/127/107 94/128/108 23/46/109 24/47/110
f 92/126/111 93/127/107 24/47/110 19/41/112
s 10
f 85/118/113 86/119/114 20/42/94 19/41/93
s 7
f 19/41/112 24/47/110 90/124/115 85/118/116
f 24/47/110 23/46/109 89/123/117 90/124/115
s 9
f 23/46/106 22/45/105 88/122/118 89/123/119
s 8
f 87/121/120 88/122/121 22/45/101 21/44/98
f 86/119/122 87/120/120 21/43/98 20/42/97
s 5
f 25/48/123 26/49/124 61/90/125 62/91/126
s 3
f 26/49/127 27/50/128 66/95/129 61/90/130
f 27/51/128 28/52/131 65/94/132 66/96/129
s 4
f 64/93/133 65/94/134 28/52/135 29/53/136
s 1
f 63/92/137 64/93/138 29/53/139 30/54/140
f 62/91/141 63/92/137 30/54/140 25/48/142
s 5
f 55/83/143 56/84/144 26/49/124 25/48/123
s 1
f 25/48/142 30/54/140 60/89/145 55/83/146
f 30/54/140 29/53/139 59/88/147 60/89/145
s 4
f 29/53/136 28/52/135 58/87/148 59/88/149
s 3
f 57/86/150 58/87/151 28/52/131 27/51/128
f 56/84/152 57/85/150 27/50/128 26/49/127
s 5
f 50/77/153 49/76/154 56/84/144 55/83/143
s 3
f 49/76/155 54/81/156 57/85/150 56/84/152
f 54/82/156 53/80/157 58/87/151 57/86/150
s 4
f 59/88/149 58/87/148 53/80/158 52/79/159
s 1
f 60/89/145 59/88/147 52/79/160 51/78/161
f 55/83/146 60/89/145 51/78/161 50/77/162
s 5
f 62/91/126 61/90/125 44/70/163 43/69/164
s 1
f 43/69/165 48/75/166 63/92/137 62/91/141
f 48/75/166 47/74/167 64/93/138 63/92/137
s 4
f 47/74/168 46/73/169 65/94/134 64/93/133
s 3
f 66/96/129 65/94/132 46/73/170 45/72/171
f 61/90/130 66/95/129 45/71/171 44/70/172
s 5
f 68/98/75 67/97/74 49/76/154 50/77/153
s 1
f 50/77/162 51/78/161 69/99/87 68/98/91
f 51/78/161 52/79/160 70/100/88 69/99/87
s 4
f 52/79/159 53/80/158 71/101/84 70/100/83
s 3
f 72/103/79 71/101/82 53/80/157 54/82/156
f 67/97/80 72/102/79 54/81/156 49/76/155
s 5
f 43/69/164 44/70/163 74/105/24 73/104/23
s 3
f 44/70/172 45/71/171 75/106/14 74/105/13
f 45/72/171 46/73/170 76/108/17 75/107/14
s 4
f 77/109/21 76/108/20 46/73/169 47/74/168
s 1
f 78/110/3 77/109/6 47/74/167 48/75/166
f 73/104/4 78/110/3 48/75/166 43/69/165
s 10
f 80/112/55 79/111/54 37/62/173 38/63/174
s 7
f 38/63/175 39/64/176 81/113/67 80/112/71
f 39/64/176 40/65/177 82/114/68 81/113/67
s 9
f 40/65/178 41/66/179 83/115/64 82/114/63
s 8
f 84/117/59 83/115/62 41/66/180 42/68/181
f 79/111/60 84/116/59 42/67/181 37/62/182
s 10
f 38/63/174 37/62/173 86/119/114 85/118/113
s 8
f 37/62/182 42/67/181 87/120/120 86/119/122
f 42/68/181 41/66/180 88/122/121 87/121/120
s 9
f 89/123/119 88/122/118 41/66/179 40/65/178
s 7
f 90/124/115 89/123/117 40/65/177 39/64/176
f 85/118/116 90/124/115 39/64/176 38/63/175
s 10
f 92/126/96 91/125/95 32/56/183 31/55/184
s 7
f 31/55/185 36/61/186 93/127/107 92/126/111
f 36/61/186 35/60/187 94/128/108 93/127/107
s 9
f 35/60/188 34/59/189 95/129/104 94/128/103
s 8
f 96/131/99 95/129/102 34/59/190 33/58/191
f 91/125/100 96/130/99 33/57/191 32/56/192
s 10
f 31/55/184 32/56/183 98/133/50 97/132/49
s 8
f 32/56/192 33/57/191 99/134/40 98/133/39
f 33/58/191 34/59/190 100/136/43 99/135/40
s 9
f 101/137/47 100/136/46 34/59/189 35/60/188
s 7
f 102/138/35 101/137/38 35/60/187 36/61/186
f 97/132/36 102/138/35 36/61/186 31/55/185
