# This file uses centimeters as units for non-parametric coordinates.

mtllib Wall_HP.mtl
g default
v -0.991730 0.008270 -0.028236
v -0.971764 -0.000000 -0.028236
v -0.971764 0.008270 -0.008270
v -0.971764 0.028236 0.000000
v -0.991730 0.028236 -0.008270
v -1.000000 0.028236 -0.028236
v -0.500000 -0.000000 -0.028236
v -0.480034 -0.000000 -0.028236
v -0.480036 0.008270 -0.008270
v -0.480034 0.028236 0.000000
v -0.500000 0.028236 0.000000
v -0.519966 0.028236 0.000000
v -0.519966 0.008270 -0.008270
v -0.519966 -0.000000 -0.028236
v -0.008270 0.008270 -0.028225
v 0.000000 0.028236 -0.028236
v -0.008270 0.028236 -0.008270
v -0.028236 0.028236 0.000000
v -0.028254 0.008270 -0.008270
v -0.028236 -0.000000 -0.028236
v -0.991730 0.991730 -0.028239
v -1.000000 0.971764 -0.028236
v -0.991730 0.971764 -0.008270
v -0.971764 0.971764 0.000000
v -0.971764 0.991730 -0.008270
v -0.971764 1.000000 -0.028236
v -0.501791 0.995905 -0.027966
v -0.521593 1.000000 -0.028020
v -0.520788 0.991732 -0.008199
v -0.519980 0.971744 0.000000
v -0.499357 0.961708 0.000000
v -0.479794 0.936665 0.000000
v -0.482826 0.970389 -0.008087
v -0.485278 0.984297 -0.027933
v -0.003913 0.465118 -0.029064
v -0.015105 0.482778 -0.029045
v -0.021098 0.475400 -0.008096
v -0.026949 0.456009 0.000000
v -0.009420 0.445861 -0.008095
v 0.000000 0.444580 -0.029045
v -0.991730 0.971766 -2.991730
v -1.000000 0.971764 -2.971764
v -0.991730 0.991730 -2.971763
v -0.971764 1.000000 -2.971764
v -0.971764 0.991730 -2.991730
v -0.971764 0.971764 -3.000000
v -0.499404 0.961609 -3.000000
v -0.520086 0.971595 -3.000000
v -0.520883 0.991688 -2.991769
v -0.521676 1.000000 -2.971872
v -0.501813 0.995905 -2.971977
v -0.485278 0.984297 -2.972068
v -0.482826 0.970389 -2.991913
v -0.479794 0.936665 -3.000000
v -0.009435 0.446039 -2.992045
v -0.026949 0.456009 -3.000000
v -0.020987 0.475260 -2.992044
v -0.014895 0.482553 -2.971359
v -0.003859 0.465139 -2.971349
v 0.000000 0.444888 -2.971359
v -0.991730 0.008270 -2.971764
v -1.000000 0.028236 -2.971764
v -0.991730 0.028236 -2.991730
v -0.971764 0.028236 -3.000000
v -0.971764 0.008270 -2.991730
v -0.971764 -0.000000 -2.971764
v -0.500000 -0.000000 -2.971764
v -0.519966 -0.000000 -2.971764
v -0.519965 0.008270 -2.991730
v -0.519966 0.028236 -3.000000
v -0.500000 0.028236 -3.000000
v -0.480034 0.028236 -3.000000
v -0.480036 0.008270 -2.991730
v -0.480034 -0.000000 -2.971764
v -0.008270 0.008270 -2.971770
v -0.028236 -0.000000 -2.971764
v -0.028254 0.008270 -2.991730
v -0.028236 0.028236 -3.000000
v -0.008270 0.028236 -2.991730
v 0.000000 0.028236 -2.971764
v -0.988060 0.011940 -0.011940
v -0.500002 0.008270 -0.008270
v -0.011932 0.011941 -0.011939
v -0.988060 0.988060 -0.011941
v -0.500621 0.985945 -0.008165
v -0.009519 0.462903 -0.011844
v -0.988060 0.988061 -2.988060
v -0.500656 0.985916 -2.991816
v -0.009485 0.462917 -2.988353
v -0.988060 0.011940 -2.988060
v -0.500002 0.008270 -2.991730
v -0.011931 0.011941 -2.988058
vt 0.102823 0.025412
vt 0.632050 0.281781
vt 0.033587 0.025408
vt 0.594125 0.025441
vt 0.733212 0.281771
vt 0.524890 0.025437
vt 0.516236 0.025436
vt 0.632069 0.475889
vt 0.725013 0.475876
vt 0.733280 0.468659
vt 0.826432 0.369766
vt 0.452433 0.025557
vt 0.111451 0.476493
vt 0.264696 0.476502
vt 0.333670 0.476523
vt 0.340290 0.476553
vt 0.445685 0.476451
vt 0.452359 0.476451
vt 0.516209 0.476517
vt 0.033561 0.476490
vt 0.825846 0.027947
vt 0.734811 0.027949
vt 0.524863 0.476519
vt 0.726765 0.027949
vt 0.635730 0.027951
vt 0.724997 0.281772
vt 0.826158 0.281762
vt 0.264722 0.025420
vt 0.333709 0.025392
vt 0.340316 0.025379
vt 0.445664 0.025556
vt 0.825849 0.218063
vt 0.734838 0.218030
vt 0.726720 0.210992
vt 0.635472 0.114144
vt 0.102797 0.476494
vt 0.594099 0.476523
vt 0.111477 0.025413
vt 0.256068 0.025421
vt 0.256042 0.476502
vt 0.107150 0.025400
vt 0.629839 0.275972
vt 0.104470 0.021085
vt 0.109831 0.021086
vt 0.626241 0.279571
vt 0.597185 0.024440
vt 0.030528 0.024407
vt 0.733305 0.275962
vt 0.594056 0.021114
vt 0.729105 0.281746
vt 0.033657 0.021081
vt 0.724903 0.275963
vt 0.520565 0.025423
vt 0.831967 0.279583
vt 0.517858 0.021109
vt 0.523247 0.021110
vt 0.828363 0.275953
vt 0.260393 0.025409
vt 0.626260 0.478100
vt 0.257715 0.021094
vt 0.263075 0.021094
vt 0.629858 0.481698
vt 0.337014 0.025380
vt 0.724711 0.481689
vt 0.333731 0.021099
vt 0.729245 0.473885
vt 0.340706 0.021099
vt 0.732510 0.478076
vt 0.449047 0.025548
vt 0.829477 0.374624
vt 0.446327 0.021105
vt 0.451809 0.021105
vt 0.831976 0.368253
vt 0.257688 0.480829
vt 0.831538 0.220228
vt 0.260366 0.476514
vt 0.828015 0.223752
vt 0.263048 0.480829
vt 0.730682 0.216092
vt 0.333695 0.480833
vt 0.735125 0.223754
vt 0.336981 0.476543
vt 0.727474 0.220215
vt 0.340680 0.480834
vt 0.630042 0.112699
vt 0.451754 0.480840
vt 0.446327 0.480840
vt 0.632466 0.118877
vt 0.449024 0.476460
vt 0.107124 0.476506
vt 0.831535 0.025783
vt 0.109804 0.480820
vt 0.104443 0.480820
vt 0.828010 0.022258
vt 0.030501 0.477489
vt 0.597159 0.477522
vt 0.734902 0.022260
vt 0.033630 0.480816
vt 0.730788 0.027923
vt 0.594029 0.480849
vt 0.726673 0.022260
vt 0.520539 0.476531
vt 0.633571 0.022262
vt 0.523220 0.480844
vt 0.517831 0.480844
vt 0.630041 0.025818
vt 0.107150 0.021085
vt 0.626240 0.275973
vt 0.729104 0.275962
vt 0.030528 0.021081
vt 0.597185 0.021114
vt 0.520563 0.021110
vt 0.831967 0.275952
vt 0.260395 0.021094
vt 0.626261 0.481699
vt 0.729124 0.481689
vt 0.337018 0.021099
vt 0.449049 0.021105
vt 0.831976 0.371958
vt 0.260368 0.480829
vt 0.831538 0.223752
vt 0.336991 0.480834
vt 0.730791 0.223754
vt 0.630043 0.116292
vt 0.449022 0.480840
vt 0.107124 0.480820
vt 0.831535 0.022258
vt 0.730788 0.022260
vt 0.597159 0.480849
vt 0.030501 0.480816
vt 0.520536 0.480844
vt 0.630041 0.022262
vn -0.017488 -0.999843 0.002750
vn -0.382491 -0.923958 0.001726
vn -0.382491 -0.923958 -0.001726
vn -0.017488 -0.999843 -0.002750
vn -0.923957 -0.382492 0.001726
vn -0.999960 -0.008563 0.002771
vn -0.999960 -0.008563 -0.002771
vn -0.923957 -0.382492 -0.001726
vn -0.017406 -0.008458 0.999813
vn -0.010943 -0.381439 0.924329
vn 0.000000 -0.382683 0.923880
vn 0.000000 -0.008579 0.999963
vn -0.010943 -0.924329 0.381439
vn 0.000000 -0.999996 0.002791
vn 0.000000 -0.923880 0.382683
vn -0.924112 -0.005329 0.382084
vn -0.924112 0.005329 0.382084
vn -0.999960 0.008563 0.002771
vn -0.382084 -0.005329 0.924112
vn -0.017408 0.008416 0.999813
vn -0.382084 0.005329 0.924112
vn 0.000000 -0.999996 0.002791
vn 0.000000 -0.999996 0.002791
vn -0.000000 -0.999996 -0.002791
vn 0.000000 -0.999996 -0.002791
vn -0.000000 -0.999996 -0.002791
vn -0.000000 -0.011824 0.999930
vn -0.000000 -0.382683 0.923880
vn 0.010932 -0.381441 0.924328
vn 0.011118 -0.012007 0.999866
vn 0.000000 -0.923879 0.382684
vn 0.017494 -0.999843 0.002748
vn 0.010928 -0.924327 0.381445
vn 0.000000 -0.008678 0.999962
vn 0.009045 0.010619 0.999903
vn 0.000183 0.008555 0.999963
vn 0.031866 0.029866 0.999046
vn 0.999817 -0.018919 0.002941
vn 0.923959 -0.382489 0.001726
vn 0.923958 -0.382489 -0.001725
vn 0.999817 -0.018908 -0.002942
vn 0.382489 -0.923959 0.001730
vn 0.017491 -0.999843 -0.002748
vn 0.382489 -0.923958 -0.001729
vn 0.397945 -0.012587 0.917323
vn 0.402418 0.004243 0.915446
vn 0.011232 0.005568 0.999921
vn 0.918604 -0.009937 0.395053
vn 0.999956 0.008862 0.003044
vn 0.918324 0.006643 0.395773
vn -0.923958 0.382490 0.001726
vn -0.923958 0.382490 -0.001726
vn -0.999960 0.008563 -0.002771
vn -0.382490 0.923958 0.001726
vn -0.017544 0.999842 0.002750
vn -0.017546 0.999842 -0.002757
vn -0.382490 0.923958 -0.001726
vn -0.011126 0.923873 0.382537
vn 0.010579 0.922859 0.384993
vn 0.008734 0.999958 0.002857
vn -0.011020 0.379894 0.924965
vn 0.004974 0.380035 0.924959
vn 0.396916 0.917851 0.002882
vn 0.397219 0.917719 -0.002905
vn 0.008746 0.999958 -0.002863
vn 0.725542 0.688176 0.002005
vn 0.725549 0.688168 -0.002007
vn 0.672165 0.631219 0.386985
vn 0.675992 0.627385 0.386552
vn 0.733267 0.679934 0.002939
vn 0.285439 0.267162 0.920407
vn 0.286626 0.264818 0.920716
vn 0.929927 0.367736 0.002279
vn 0.929927 0.367737 -0.002219
vn 0.733270 0.679932 -0.002935
vn 0.999956 0.008869 -0.003040
vn -0.924113 0.005329 -0.382083
vn -0.924112 -0.005329 -0.382083
vn -0.382078 0.005330 -0.924115
vn -0.017412 0.008434 -0.999813
vn -0.017409 -0.008460 -0.999813
vn -0.382078 -0.005329 -0.924115
vn -0.010884 0.379677 -0.925055
vn 0.005064 0.379797 -0.925056
vn 0.000185 0.008571 -0.999963
vn -0.011004 0.923776 -0.382774
vn 0.010632 0.922748 -0.385257
vn 0.008995 0.010651 -0.999903
vn 0.000000 -0.008668 -0.999962
vn 0.000000 -0.008581 -0.999963
vn 0.031585 0.029619 -0.999062
vn 0.000000 -0.011823 -0.999930
vn 0.283332 0.265529 -0.921530
vn 0.284430 0.262954 -0.921930
vn 0.011180 0.005543 -0.999922
vn 0.671283 0.630651 -0.389433
vn 0.675043 0.626835 -0.389095
vn 0.399527 0.004022 -0.916713
vn 0.395258 -0.012748 -0.918482
vn 0.011027 -0.012011 -0.999867
vn 0.917208 0.006242 -0.398360
vn 0.917577 -0.010227 -0.397426
vn -0.010943 -0.924330 -0.381439
vn -0.000000 -0.923880 -0.382683
vn -0.010943 -0.381435 -0.924331
vn 0.000000 -0.382679 -0.923881
vn 0.000000 -0.923880 -0.382683
vn 0.010931 -0.924327 -0.381444
vn 0.000000 -0.382680 -0.923881
vn 0.010935 -0.381440 -0.924329
vn -0.887918 -0.325273 0.325270
vn -0.325269 -0.887919 0.325269
vn -0.325270 -0.325270 0.887918
vn 0.000000 -0.923879 0.382684
vn 0.000000 -0.382683 0.923880
vn 0.324991 -0.887950 0.325463
vn 0.888041 -0.325009 0.325195
vn 0.325065 -0.325351 0.887964
vn -0.325302 0.887911 0.325257
vn -0.887911 0.325309 0.325251
vn -0.325292 0.325295 0.887901
vn 0.436422 0.807258 0.397329
vn 0.191689 0.326376 0.925599
vn 0.862318 0.340971 0.374361
vn 0.496752 0.196406 0.845377
vn -0.325252 0.325296 -0.887915
vn -0.887918 0.325303 -0.325237
vn -0.325274 0.887925 -0.325249
vn 0.190055 0.326151 -0.926016
vn 0.434230 0.807978 -0.398266
vn 0.860281 0.340166 -0.379743
vn 0.490153 0.193792 -0.849821
vn -0.325274 -0.887917 -0.325269
vn -0.887919 -0.325268 -0.325268
vn -0.325266 -0.325268 -0.887920
vn -0.000002 -0.923880 -0.382683
vn 0.000005 -0.382680 -0.923881
vn 0.888030 -0.325072 -0.325164
vn 0.325053 -0.887938 -0.325433
vn 0.325103 -0.325401 -0.887931
s 1
g Wall_HP
usemtl initialShadingGroup
f 2/1/1 1/41/2 61/90/3 66/36/4
s 2
f 1/41/5 6/38/6 62/13/7 61/90/8
s 3
f 4/2/9 3/42/10 13/52/11 12/26/12
s 1
f 3/43/13 2/1/1 14/3/14 13/51/15
s 2
f 6/38/6 5/44/16 23/60/17 22/39/18
s 3
f 5/45/19 4/2/9 24/8/20 23/59/21
s 1
f 8/4/22 7/46/23 67/96/24 74/37/25
f 7/47/23 14/3/14 68/20/26 67/95/24
s 3
f 10/5/27 9/48/28 19/57/29 18/27/30
s 1
f 9/49/31 8/4/22 20/6/32 19/56/33
s 3
f 12/26/12 11/50/34 31/66/35 30/9/36
f 11/50/34 10/5/27 32/10/37 31/66/35
s 6
f 16/7/38 15/53/39 75/102/40 80/19/41
s 1
f 15/53/42 20/6/32 76/23/43 75/102/44
s 3
f 18/27/30 17/54/45 39/73/46 38/11/47
s 6
f 17/55/48 16/7/38 40/12/49 39/72/50
s 2
f 22/39/18 21/58/51 43/76/52 42/40/53
s 6
f 21/58/54 26/28/55 44/14/56 43/76/57
f 26/28/55 25/61/58 29/65/59 28/29/60
s 3
f 25/62/61 24/8/20 30/9/36 29/64/62
s 6
f 28/29/60 27/63/63 51/82/64 50/15/65
f 27/63/63 34/30/66 52/16/67 51/82/64
f 34/30/66 33/67/68 37/71/69 36/31/70
s 3
f 33/68/71 32/10/37 38/11/47 37/70/72
s 6
f 36/31/70 35/69/73 59/89/74 58/17/75
f 35/69/73 40/12/49 60/18/76 59/89/74
s 2
f 42/40/53 41/74/77 63/92/78 62/13/7
s 8
f 41/75/79 46/32/80 64/21/81 63/91/82
f 46/32/80 45/77/83 49/81/84 48/33/85
s 6
f 45/78/86 44/14/56 50/15/65 49/80/87
s 8
f 48/33/85 47/79/88 71/99/89 70/22/90
f 47/79/88 54/34/91 72/24/92 71/99/89
f 54/34/91 53/83/93 57/88/94 56/35/95
s 6
f 53/84/96 52/16/67 58/17/75 57/87/97
s 8
f 56/35/95 55/85/98 79/106/99 78/25/100
s 6
f 55/86/101 60/18/76 80/19/41 79/105/102
s 1
f 66/36/4 65/93/103 69/98/104 68/20/26
s 8
f 65/94/105 64/21/81 70/22/90 69/97/106
s 1
f 74/37/25 73/100/107 77/104/108 76/23/43
s 8
f 73/101/109 72/24/92 78/25/100 77/103/110
s 3
f 4/2/9 12/26/12 30/9/36 24/8/20
f 10/5/27 18/27/30 38/11/47 32/10/37
s 6
f 26/28/55 28/29/60 50/15/65 44/14/56
f 34/30/66 36/31/70 58/17/75 52/16/67
s 8
f 46/32/80 48/33/85 70/22/90 64/21/81
f 54/34/91 56/35/95 78/25/100 72/24/92
s 1
f 66/36/4 68/20/26 14/3/14 2/1/1
f 74/37/25 76/23/43 20/6/32 8/4/22
s 6
f 16/7/38 80/19/41 60/18/76 40/12/49
s 2
f 62/13/7 6/38/6 22/39/18 42/40/53
f 5/44/16 6/38/6 1/41/5 81/107/111
s 1
f 1/41/2 2/1/1 3/43/13 81/107/112
s 3
f 3/42/10 4/2/9 5/45/19 81/108/113
s 1
f 13/51/15 14/3/14 7/47/23 82/110/114
f 7/46/23 8/4/22 9/49/31 82/111/114
s 3
f 9/48/28 10/5/27 11/50/34 82/109/115
f 11/50/34 12/26/12 13/52/11 82/109/115
s 1
f 19/56/33 20/6/32 15/53/42 83/112/116
s 6
f 15/53/39 16/7/38 17/55/48 83/112/117
s 3
f 17/54/45 18/27/30 19/57/29 83/113/118
s 6
f 25/61/58 26/28/55 21/58/54 84/114/119
s 2
f 21/58/51 22/39/18 23/60/17 84/114/120
s 3
f 23/59/21 24/8/20 25/62/61 84/115/121
s 6
f 33/67/68 34/30/66 27/63/63 85/117/122
f 27/63/63 28/29/60 29/65/59 85/117/122
s 3
f 29/64/62 30/9/36 31/66/35 85/116/123
f 31/66/35 32/10/37 33/68/71 85/116/123
s 6
f 39/72/50 40/12/49 35/69/73 86/118/124
f 35/69/73 36/31/70 37/71/69 86/118/124
s 3
f 37/70/72 38/11/47 39/73/46 86/119/125
s 8
f 45/77/83 46/32/80 41/75/79 87/121/126
s 2
f 41/74/77 42/40/53 43/76/52 87/120/127
s 6
f 43/76/57 44/14/56 45/78/86 87/120/128
s 8
f 53/83/93 54/34/91 47/79/88 88/123/129
f 47/79/88 48/33/85 49/81/84 88/123/129
s 6
f 49/80/87 50/15/65 51/82/64 88/122/130
f 51/82/64 52/16/67 53/84/96 88/122/130
f 59/89/74 60/18/76 55/86/101 89/125/131
s 8
f 55/85/98 56/35/95 57/88/94 89/124/132
s 6
f 57/87/97 58/17/75 59/89/74 89/125/131
s 1
f 65/93/103 66/36/4 61/90/3 90/126/133
s 2
f 61/90/8 62/13/7 63/92/78 90/126/134
s 8
f 63/91/82 64/21/81 65/94/105 90/127/135
s 1
f 73/100/107 74/37/25 67/96/24 91/129/136
f 67/95/24 68/20/26 69/98/104 91/130/136
s 8
f 69/97/106 70/22/90 71/99/89 91/128/137
f 71/99/89 72/24/92 73/101/109 91/128/137
s 6
f 79/105/102 80/19/41 75/102/40 92/131/138
s 1
f 75/102/44 76/23/43 77/104/108 92/131/139
s 8
f 77/103/110 78/25/100 79/106/99 92/132/140
